# xmcd CD database file
#
# Track frame offsets:
#	150
#	23982
#	50610
#	79930
#	97485
#	121992
#	140930
#	158500
#
# Disc length: 2470 seconds
#
# Revision: 0
# Processed by: cddbd v1.5.1PL0 Copyright (c) Steve Scherf et al.
# Submitted via: CDex 1.51
#
DISCID=7009a408
DTITLE=Various Artist - Cape Jazz 2
DYEAR=1900
DGENRE=Jazz
TTITLE0=Merton Barrow - Capetown
TTITLE1=Robbie Jansen and Sons Of Table Mountain - Robbie Bop
TTITLE2=Mike Perry and Winston Mankunku - Khawuleza
TTITLE3=Basil Coetzee - Majietas
TTITLE4=Mike Campbell - Snock Town
TTITLE5=Basil Coetzee - Mofolo
TTITLE6=The Genuines - Nights With The Cape Gypsies
TTITLE7=Robbie Jansen and Sons Of Table Mountain - Tateful Thoughts
EXTD=
EXTT0=
EXTT1=
EXTT2=
EXTT3=
EXTT4=
EXTT5=
EXTT6=
EXTT7=
PLAYORDER=
